<svg width="540" height="156" viewBox="0 0 540 156" fill="none" xmlns="http://www.w3.org/2000/svg">
<path d="M537 138.009C537 146.323 530.126 153.057 521.623 153.057H18.3973C9.8985 153.057 3 146.323 3 138.009V18.0105C3 9.70097 9.8985 2.94336 18.3973 2.94336H521.619C530.126 2.94336 536.996 9.70097 536.996 18.0105L537 138.009Z" fill="black"/>
<path d="M520 3.12488C529.26 3.12488 536.795 10.4715 536.795 19.5V136.5C536.795 145.529 529.26 152.875 520 152.875H20C10.74 152.875 3.205 145.529 3.205 136.5V19.5C3.205 10.4715 10.74 3.12488 20 3.12488H520ZM520 1.52588e-05H20C9.005 1.52588e-05 0 8.77989 0 19.5V136.5C0 147.22 9.005 156 20 156H520C530.995 156 540 147.22 540 136.5V19.5C540 8.77989 530.995 1.52588e-05 520 1.52588e-05Z" fill="#A6A6A6"/>
<path d="M120.512 77.1576C120.396 64.5879 131.068 58.4727 131.556 58.188C125.512 49.5963 116.144 48.4224 112.852 48.3288C104.984 47.5215 97.3524 52.9191 93.3444 52.9191C89.2564 52.9191 83.0844 48.4068 76.4324 48.5394C67.8723 48.6681 59.8644 53.5002 55.4724 61.0038C46.4084 76.3035 53.1684 98.787 61.8524 111.154C66.1964 117.211 71.2724 123.973 77.9164 123.735C84.4164 123.474 86.8444 119.695 94.6884 119.695C102.46 119.695 104.74 123.735 111.516 123.583C118.492 123.474 122.884 117.499 127.076 111.388C132.096 104.446 134.112 97.6092 134.192 97.2582C134.028 97.2036 120.644 92.2233 120.512 77.1576Z" fill="white"/>
<path d="M107.712 40.1934C111.208 35.9307 113.6 30.1314 112.936 24.2463C107.876 24.4647 101.548 27.6588 97.9044 31.8279C94.6804 35.5017 91.8003 41.5233 92.5443 47.1861C98.2283 47.5995 104.064 44.3898 107.712 40.1934Z" fill="white"/>
<path d="M196.199 39.035C196.199 43.6253 194.787 47.0807 191.967 49.4012C189.355 51.5423 185.643 52.6148 180.835 52.6148C178.451 52.6148 176.411 52.5134 174.703 52.3106V27.2297C176.931 26.8787 179.331 26.6993 181.923 26.6993C186.503 26.6993 189.955 27.6704 192.283 29.6126C194.891 31.8083 196.199 34.9478 196.199 39.035ZM191.779 39.1481C191.779 36.1724 190.971 33.8909 189.355 32.2997C187.739 30.7124 185.379 29.9168 182.271 29.9168C180.951 29.9168 179.827 30.0026 178.895 30.182V49.2491C179.411 49.3271 180.355 49.3622 181.727 49.3622C184.935 49.3622 187.411 48.4925 189.155 46.7531C190.899 45.0137 191.779 42.4787 191.779 39.1481Z" fill="white"/>
<path d="M219.636 43.0442C219.636 45.8717 218.808 48.1883 217.152 50.0057C215.416 51.8738 213.116 52.8059 210.244 52.8059C207.476 52.8059 205.272 51.9128 203.628 50.1188C201.988 48.3287 201.168 46.0706 201.168 43.3484C201.168 40.5014 202.012 38.1653 203.708 36.3518C205.404 34.5383 207.684 33.6296 210.556 33.6296C213.324 33.6296 215.548 34.5227 217.232 36.3128C218.832 38.0522 219.636 40.2986 219.636 43.0442ZM215.288 43.1768C215.288 41.4803 214.912 40.0256 214.164 38.8127C213.284 37.3463 212.032 36.6131 210.404 36.6131C208.72 36.6131 207.44 37.3463 206.56 38.8127C205.808 40.0256 205.436 41.5037 205.436 43.2509C205.436 44.9474 205.812 46.4021 206.56 47.615C207.468 49.0814 208.732 49.8146 210.364 49.8146C211.964 49.8146 213.22 49.0697 214.124 47.576C214.9 46.3397 215.288 44.8733 215.288 43.1768Z" fill="white"/>
<path d="M251.058 34.004L245.158 52.3886H241.318L238.874 44.4053C238.254 42.4124 237.75 40.4312 237.358 38.4656H237.282C236.918 40.4858 236.414 42.4631 235.766 44.4053L233.17 52.3886H229.286L223.738 34.004H228.046L230.178 42.7439C230.694 44.8109 231.118 46.7804 231.458 48.6446H231.534C231.846 47.108 232.362 45.1502 233.09 42.7829L235.766 34.0079H239.182L241.746 42.5957C242.366 44.69 242.87 46.7063 243.258 48.6485H243.374C243.658 46.757 244.086 44.7407 244.654 42.5957L246.942 34.0079H251.058V34.004Z" fill="white"/>
<path d="M272.79 52.3887H268.598V41.8587C268.598 38.6139 267.334 36.9915 264.798 36.9915C263.554 36.9915 262.55 37.4361 261.77 38.3292C260.998 39.2223 260.606 40.2753 260.606 41.4804V52.3849H256.414V39.2574C256.414 37.6428 256.362 35.8917 256.262 33.9963H259.946L260.142 36.8706H260.258C260.746 35.9775 261.474 35.2404 262.43 34.6515C263.566 33.9651 264.838 33.618 266.23 33.618C267.99 33.618 269.454 34.1718 270.618 35.2833C272.066 36.6444 272.79 38.6763 272.79 41.3751V52.3887V52.3887Z" fill="white"/>
<path d="M284.352 52.3887H280.164V25.5684H284.352V52.3887Z" fill="white"/>
<path d="M309.031 43.0442C309.031 45.8717 308.203 48.1883 306.547 50.0057C304.811 51.8738 302.507 52.8059 299.639 52.8059C296.867 52.8059 294.662 51.9128 293.022 50.1188C291.382 48.3287 290.562 46.0706 290.562 43.3484C290.562 40.5014 291.407 38.1653 293.103 36.3518C294.799 34.5383 297.079 33.6296 299.947 33.6296C302.719 33.6296 304.938 34.5227 306.626 36.3128C308.226 38.0522 309.031 40.2986 309.031 43.0442ZM304.678 43.1768C304.678 41.4803 304.303 40.0256 303.555 38.8127C302.679 37.3463 301.422 36.6131 299.798 36.6131C298.11 36.6131 296.83 37.3463 295.954 38.8127C295.202 40.0256 294.831 41.5037 294.831 43.2509C294.831 44.9474 295.206 46.4021 295.954 47.615C296.862 49.0814 298.127 49.8146 299.759 49.8146C301.359 49.8146 302.61 49.0697 303.514 47.576C304.294 46.3397 304.678 44.8733 304.678 43.1768Z" fill="white"/>
<path d="M329.32 52.3886H325.556L325.244 50.2709H325.128C323.84 51.9596 322.004 52.8059 319.62 52.8059C317.84 52.8059 316.4 52.2482 315.316 51.1406C314.332 50.1344 313.84 48.8825 313.84 47.3966C313.84 45.1502 314.8 43.4381 316.732 42.2525C318.66 41.0669 321.372 40.4858 324.864 40.5131V40.1699C324.864 37.748 323.56 36.539 320.948 36.539C319.088 36.539 317.448 36.9953 316.032 37.9001L315.18 35.2169C316.932 34.16 319.096 33.6296 321.648 33.6296C326.576 33.6296 329.048 36.1646 329.048 41.2346V48.005C329.048 49.8419 329.14 51.3044 329.32 52.3886ZM324.968 46.0706V43.2353C320.344 43.1573 318.032 44.3936 318.032 46.9403C318.032 47.8997 318.296 48.6173 318.836 49.097C319.376 49.5767 320.064 49.8146 320.884 49.8146C321.804 49.8146 322.664 49.5299 323.448 48.9644C324.236 48.395 324.72 47.6735 324.9 46.7882C324.944 46.5893 324.968 46.3475 324.968 46.0706Z" fill="white"/>
<path d="M353.141 52.3887H349.421L349.225 49.4364H349.109C347.921 51.6828 345.897 52.806 343.053 52.806C340.781 52.806 338.889 51.9363 337.389 50.1969C335.889 48.4575 335.141 46.1994 335.141 43.4265C335.141 40.4508 335.953 38.0406 337.585 36.1998C339.165 34.4838 341.101 33.6258 343.405 33.6258C345.937 33.6258 347.709 34.4565 348.717 36.1218H348.797V25.5684H352.993V47.4357C352.993 49.2258 353.041 50.8755 353.141 52.3887ZM348.797 44.6355V41.5701C348.797 41.0397 348.757 40.6107 348.681 40.2831C348.445 39.3003 347.937 38.4735 347.165 37.8066C346.385 37.1397 345.445 36.8043 344.361 36.8043C342.797 36.8043 341.573 37.4088 340.673 38.6217C339.781 39.8346 339.329 41.3829 339.329 43.2744C339.329 45.0918 339.757 46.566 340.617 47.7009C341.525 48.9099 342.749 49.5144 344.281 49.5144C345.657 49.5144 346.757 49.0113 347.593 48.0012C348.401 47.0691 348.797 45.9459 348.797 44.6355Z" fill="white"/>
<path d="M388.991 43.0442C388.991 45.8717 388.163 48.1883 386.507 50.0057C384.771 51.8738 382.475 52.8059 379.599 52.8059C376.835 52.8059 374.631 51.9128 372.983 50.1188C371.343 48.3287 370.523 46.0706 370.523 43.3484C370.523 40.5014 371.367 38.1653 373.063 36.3518C374.759 34.5383 377.039 33.6296 379.915 33.6296C382.679 33.6296 384.907 34.5227 386.587 36.3128C388.187 38.0522 388.991 40.2986 388.991 43.0442ZM384.647 43.1768C384.647 41.4803 384.271 40.0256 383.523 38.8127C382.639 37.3463 381.391 36.6131 379.759 36.6131C378.079 36.6131 376.799 37.3463 375.915 38.8127C375.163 40.0256 374.791 41.5037 374.791 43.2509C374.791 44.9474 375.167 46.4021 375.915 47.615C376.823 49.0814 378.087 49.8146 379.719 49.8146C381.319 49.8146 382.579 49.0697 383.483 47.576C384.255 46.3397 384.647 44.8733 384.647 43.1768Z" fill="white"/>
<path d="M411.532 52.3887H407.344V41.8587C407.344 38.6139 406.08 36.9915 403.54 36.9915C402.296 36.9915 401.292 37.4361 400.516 38.3292C399.74 39.2223 399.352 40.2753 399.352 41.4804V52.3849H395.156V39.2574C395.156 37.6428 395.108 35.8917 395.008 33.9963H398.688L398.884 36.8706H399C399.492 35.9775 400.22 35.2404 401.172 34.6515C402.312 33.9651 403.58 33.618 404.976 33.618C406.732 33.618 408.196 34.1718 409.36 35.2833C410.812 36.6444 411.532 38.6763 411.532 41.3751V52.3887V52.3887Z" fill="white"/>
<path d="M439.742 37.0656H435.126V45.9966C435.126 48.2664 435.946 49.4013 437.57 49.4013C438.322 49.4013 438.946 49.3389 439.438 49.2102L439.546 52.3107C438.718 52.6149 437.63 52.767 436.29 52.767C434.634 52.767 433.346 52.2756 432.414 51.2928C431.478 50.31 431.014 48.6564 431.014 46.3359V37.0656H428.258V34.0041H431.014V30.6345L435.122 29.4255V34.0002H439.738V37.0656H439.742Z" fill="white"/>
<path d="M461.935 52.3887H457.739V41.9367C457.739 38.6412 456.475 36.9915 453.943 36.9915C451.999 36.9915 450.671 37.947 449.943 39.858C449.819 40.2597 449.747 40.7511 449.747 41.3283V52.3848H445.559V25.5684H449.747V36.6483H449.827C451.147 34.632 453.039 33.6258 455.491 33.6258C457.227 33.6258 458.663 34.1796 459.803 35.2911C461.223 36.6756 461.935 38.7348 461.935 41.457V52.3887V52.3887Z" fill="white"/>
<path d="M484.827 42.3267C484.827 43.0599 484.771 43.6761 484.671 44.1792H472.099C472.155 45.9966 472.755 47.3811 473.919 48.3405C474.983 49.1985 476.355 49.6275 478.035 49.6275C479.895 49.6275 481.59 49.3389 483.118 48.7578L483.775 51.597C481.987 52.3536 479.883 52.7319 477.447 52.7319C474.527 52.7319 472.227 51.8934 470.562 50.2164C468.89 48.5394 468.062 46.2891 468.062 43.4655C468.062 40.6926 468.835 38.3838 470.391 36.543C472.015 34.5774 474.211 33.5946 476.983 33.5946C479.695 33.5946 481.755 34.5774 483.147 36.543C484.271 38.103 484.827 40.0335 484.827 42.3267ZM480.827 41.2698C480.859 40.0569 480.582 39.0117 480.014 38.1303C479.286 36.9954 478.178 36.426 476.678 36.426C475.31 36.426 474.194 36.9798 473.342 38.0913C472.646 38.9766 472.235 40.0335 472.099 41.2698H480.827Z" fill="white"/>
<path d="M214.581 122.865H205.497L200.521 107.62H183.225L178.485 122.865H169.641L186.777 70.9642H197.361L214.581 122.865ZM199.021 101.224L194.521 87.6718C194.045 86.2873 193.153 83.0269 191.837 77.8945H191.677C191.153 80.1019 190.309 83.3623 189.149 87.6718L184.729 101.224H199.021V101.224Z" fill="white"/>
<path d="M258.648 103.693C258.648 110.058 256.884 115.089 253.356 118.782C250.196 122.07 246.272 123.712 241.588 123.712C236.532 123.712 232.9 121.941 230.688 118.4H230.528V138.115H222V97.7612C222 93.7598 221.892 89.6532 221.684 85.4412H229.184L229.66 91.3731H229.82C232.664 86.9037 236.98 84.6729 242.772 84.6729C247.3 84.6729 251.08 86.4161 254.104 89.9066C257.136 93.401 258.648 97.9952 258.648 103.693ZM249.96 103.997C249.96 100.355 249.12 97.3518 247.432 94.9884C245.588 92.5236 243.112 91.2912 240.008 91.2912C237.904 91.2912 235.992 91.9775 234.284 93.3308C232.572 94.6958 231.452 96.4782 230.928 98.6856C230.664 99.7152 230.532 100.558 230.532 101.221V107.461C230.532 110.183 231.388 112.48 233.1 114.356C234.812 116.232 237.036 117.168 239.772 117.168C242.984 117.168 245.484 115.959 247.272 113.548C249.064 111.134 249.96 107.952 249.96 103.997Z" fill="white"/>
<path d="M302.796 103.693C302.796 110.058 301.032 115.089 297.5 118.782C294.344 122.07 290.42 123.712 285.736 123.712C280.68 123.712 277.048 121.941 274.84 118.4H274.68V138.115H266.152V97.7612C266.152 93.7598 266.044 89.6532 265.836 85.4412H273.336L273.812 91.3731H273.972C276.812 86.9037 281.128 84.6729 286.924 84.6729C291.448 84.6729 295.228 86.4161 298.26 89.9066C301.28 93.401 302.796 97.9952 302.796 103.693ZM294.108 103.997C294.108 100.355 293.264 97.3518 291.576 94.9884C289.732 92.5236 287.264 91.2912 284.156 91.2912C282.048 91.2912 280.14 91.9775 278.428 93.3308C276.716 94.6958 275.6 96.4782 275.076 98.6856C274.816 99.7152 274.68 100.558 274.68 101.221V107.461C274.68 110.183 275.536 112.48 277.24 114.356C278.952 116.228 281.176 117.168 283.92 117.168C287.132 117.168 289.632 115.959 291.42 113.548C293.212 111.134 294.108 107.952 294.108 103.997Z" fill="white"/>
<path d="M352.157 108.311C352.157 112.726 350.585 116.317 347.429 119.09C343.961 122.121 339.133 123.634 332.929 123.634C327.201 123.634 322.609 122.557 319.133 120.401L321.109 113.47C324.853 115.678 328.961 116.785 333.437 116.785C336.649 116.785 339.149 116.076 340.945 114.664C342.733 113.252 343.625 111.357 343.625 108.993C343.625 106.887 342.889 105.113 341.413 103.674C339.945 102.235 337.493 100.897 334.069 99.6606C324.749 96.2715 320.093 91.3068 320.093 84.7782C320.093 80.5116 321.725 77.0133 324.993 74.2911C328.249 71.565 332.593 70.2039 338.025 70.2039C342.869 70.2039 346.893 71.0268 350.105 72.6687L347.973 79.4469C344.973 77.8557 341.581 77.0601 337.785 77.0601C334.785 77.0601 332.441 77.7816 330.761 79.2168C329.341 80.4999 328.629 82.0638 328.629 83.9163C328.629 85.9677 329.441 87.6642 331.073 88.998C332.493 90.2304 335.073 91.5642 338.817 93.0033C343.397 94.8012 346.761 96.9033 348.925 99.3135C351.081 101.716 352.157 104.723 352.157 108.311Z" fill="white"/>
<path d="M380.353 91.6811H370.953V109.851C370.953 114.473 372.609 116.782 375.929 116.782C377.453 116.782 378.717 116.653 379.717 116.395L379.953 122.71C378.273 123.322 376.061 123.63 373.321 123.63C369.953 123.63 367.321 122.628 365.421 120.627C363.529 118.622 362.577 115.261 362.577 110.538V91.6733H356.977V85.4333H362.577V78.581L370.953 76.1162V85.4333H380.353V91.6811Z" fill="white"/>
<path d="M422.764 103.845C422.764 109.598 421.076 114.321 417.708 118.014C414.176 121.816 409.488 123.712 403.644 123.712C398.012 123.712 393.528 121.891 390.184 118.248C386.84 114.605 385.168 110.007 385.168 104.465C385.168 98.6661 386.888 93.9159 390.34 90.2226C393.784 86.5254 398.432 84.6768 404.276 84.6768C409.908 84.6768 414.44 86.4981 417.86 90.1446C421.132 93.6819 422.764 98.2488 422.764 103.845ZM413.916 104.114C413.916 100.663 413.16 97.7028 411.628 95.2341C409.84 92.2467 407.284 90.7569 403.972 90.7569C400.544 90.7569 397.94 92.2506 396.152 95.2341C394.62 97.7067 393.864 100.714 393.864 104.27C393.864 107.722 394.62 110.682 396.152 113.147C397.996 116.134 400.572 117.624 403.896 117.624C407.152 117.624 409.708 116.103 411.552 113.069C413.124 110.553 413.916 107.562 413.916 104.114Z" fill="white"/>
<path d="M450.485 92.7537C449.641 92.6016 448.741 92.5236 447.797 92.5236C444.797 92.5236 442.477 93.6272 440.845 95.8385C439.425 97.7885 438.713 100.253 438.713 103.229V122.866H430.189L430.269 97.227C430.269 92.9136 430.161 88.9863 429.949 85.4451H437.377L437.689 92.6055H437.925C438.825 90.1446 440.245 88.1634 442.189 86.6775C444.089 85.3398 446.141 84.6729 448.353 84.6729C449.141 84.6729 449.853 84.7274 450.485 84.8249V92.7537Z" fill="white"/>
<path d="M488.624 102.383C488.624 103.873 488.524 105.128 488.312 106.154H462.728C462.828 109.851 464.064 112.679 466.44 114.629C468.596 116.372 471.384 117.246 474.808 117.246C478.596 117.246 482.052 116.657 485.16 115.475L486.496 121.247C482.864 122.791 478.576 123.56 473.628 123.56C467.676 123.56 463.004 121.852 459.604 118.439C456.212 115.027 454.512 110.444 454.512 104.695C454.512 99.0522 456.092 94.3527 459.256 90.6048C462.568 86.6034 467.044 84.6027 472.676 84.6027C478.208 84.6027 482.396 86.6034 485.24 90.6048C487.492 93.7833 488.624 97.7145 488.624 102.383ZM480.492 100.226C480.548 97.7613 479.992 95.6319 478.836 93.834C477.36 91.5213 475.092 90.3669 472.04 90.3669C469.252 90.3669 466.984 91.494 465.252 93.756C463.832 95.5539 462.988 97.7106 462.728 100.222H480.492V100.226Z" fill="white"/>
</svg>
